<svg width="1390" height="174" viewBox="0 0 1390 174" fill="none" xmlns="http://www.w3.org/2000/svg">
<path d="M662.182 1.5C681.01 1.5 692.506 22.1909 682.561 38.1777L606.948 159.72C603.218 168.132 594.795 174 585 174H24C10.7452 174 0 163.255 0 150V26C1.03081e-06 12.7452 10.7452 2 24 2H502.854C504.441 1.67423 506.099 1.5 507.818 1.5H662.182ZM1366 0C1379.25 9.89573e-05 1390 10.7452 1390 24V148C1390 161.255 1379.25 172 1366 172H814.146C812.559 172.326 810.901 172.5 809.182 172.5H654.818C635.99 172.5 624.494 151.809 634.439 135.822L711.621 11.7568C716.196 4.40346 723.756 0.633199 731.393 0.443359C732.884 0.153414 734.424 0 736 0H1366Z" fill="#EBE2D2"/>
</svg>
