<svg xmlns="http://www.w3.org/2000/svg" xmlns:xlink="http://www.w3.org/1999/xlink" width="500" zoomAndPan="magnify" viewBox="0 0 375 374.999991" height="500" preserveAspectRatio="xMidYMid meet" version="1.2"><defs><clipPath id="741cbbe7f1"><path d="M 18 18 L 360 18 L 360 360 L 18 360 Z M 18 18 "/></clipPath><clipPath id="0633c8f71c"><path d="M 359.734375 189.332031 C 359.734375 192.121094 359.667969 194.910156 359.527344 197.695312 C 359.390625 200.480469 359.1875 203.261719 358.914062 206.035156 C 358.640625 208.8125 358.300781 211.578125 357.890625 214.335938 C 357.480469 217.09375 357.003906 219.84375 356.460938 222.578125 C 355.917969 225.3125 355.304688 228.03125 354.628906 230.738281 C 353.949219 233.441406 353.207031 236.128906 352.398438 238.796875 C 351.585938 241.46875 350.714844 244.113281 349.773438 246.738281 C 348.835938 249.367188 347.832031 251.96875 346.761719 254.542969 C 345.695312 257.121094 344.566406 259.667969 343.375 262.191406 C 342.183594 264.710938 340.929688 267.199219 339.613281 269.660156 C 338.300781 272.121094 336.925781 274.546875 335.492188 276.9375 C 334.058594 279.328125 332.566406 281.683594 331.015625 284.003906 C 329.46875 286.320312 327.863281 288.601562 326.199219 290.839844 C 324.539062 293.082031 322.824219 295.277344 321.054688 297.433594 C 319.285156 299.589844 317.464844 301.703125 315.59375 303.769531 C 313.71875 305.835938 311.796875 307.851562 309.824219 309.824219 C 307.851562 311.796875 305.835938 313.71875 303.769531 315.59375 C 301.703125 317.464844 299.589844 319.285156 297.433594 321.054688 C 295.277344 322.824219 293.082031 324.539062 290.839844 326.199219 C 288.601562 327.863281 286.320312 329.46875 284.003906 331.015625 C 281.683594 332.566406 279.328125 334.058594 276.9375 335.492188 C 274.546875 336.925781 272.121094 338.300781 269.660156 339.613281 C 267.199219 340.929688 264.710938 342.183594 262.191406 343.375 C 259.667969 344.566406 257.121094 345.695312 254.542969 346.761719 C 251.96875 347.832031 249.367188 348.835938 246.738281 349.773438 C 244.113281 350.714844 241.46875 351.585938 238.796875 352.398438 C 236.128906 353.207031 233.441406 353.949219 230.738281 354.628906 C 228.03125 355.304688 225.3125 355.917969 222.578125 356.460938 C 219.84375 357.003906 217.09375 357.480469 214.335938 357.890625 C 211.578125 358.300781 208.8125 358.640625 206.035156 358.914062 C 203.261719 359.1875 200.480469 359.390625 197.695312 359.527344 C 194.910156 359.667969 192.121094 359.734375 189.332031 359.734375 C 186.546875 359.734375 183.757812 359.667969 180.972656 359.527344 C 178.1875 359.390625 175.40625 359.1875 172.632812 358.914062 C 169.855469 358.640625 167.089844 358.300781 164.332031 357.890625 C 161.574219 357.480469 158.824219 357.003906 156.089844 356.460938 C 153.355469 355.917969 150.636719 355.304688 147.929688 354.628906 C 145.226562 353.949219 142.539062 353.207031 139.871094 352.398438 C 137.199219 351.585938 134.554688 350.714844 131.929688 349.773438 C 129.300781 348.835938 126.699219 347.832031 124.125 346.761719 C 121.546875 345.695312 119 344.566406 116.476562 343.375 C 113.957031 342.183594 111.46875 340.929688 109.007812 339.613281 C 106.546875 338.300781 104.121094 336.925781 101.730469 335.492188 C 99.339844 334.058594 96.984375 332.566406 94.664062 331.015625 C 92.347656 329.46875 90.066406 327.863281 87.828125 326.199219 C 85.585938 324.539062 83.390625 322.824219 81.234375 321.054688 C 79.078125 319.285156 76.964844 317.464844 74.898438 315.59375 C 72.832031 313.71875 70.816406 311.796875 68.84375 309.824219 C 66.871094 307.851562 64.949219 305.835938 63.074219 303.769531 C 61.203125 301.703125 59.382812 299.589844 57.613281 297.433594 C 55.84375 295.277344 54.128906 293.082031 52.46875 290.839844 C 50.804688 288.601562 49.199219 286.320312 47.652344 284.003906 C 46.101562 281.683594 44.609375 279.328125 43.175781 276.9375 C 41.742188 274.546875 40.367188 272.121094 39.054688 269.660156 C 37.738281 267.199219 36.484375 264.710938 35.292969 262.191406 C 34.101562 259.667969 32.972656 257.121094 31.90625 254.542969 C 30.835938 251.96875 29.832031 249.367188 28.894531 246.738281 C 27.953125 244.113281 27.082031 241.46875 26.269531 238.796875 C 25.460938 236.128906 24.71875 233.441406 24.039062 230.738281 C 23.363281 228.03125 22.75 225.3125 22.207031 222.578125 C 21.664062 219.84375 21.1875 217.09375 20.777344 214.335938 C 20.367188 211.578125 20.027344 208.8125 19.753906 206.035156 C 19.480469 203.261719 19.277344 200.480469 19.136719 197.695312 C 19 194.910156 18.933594 192.121094 18.933594 189.332031 C 18.933594 186.546875 19 183.757812 19.136719 180.972656 C 19.277344 178.1875 19.480469 175.40625 19.753906 172.632812 C 20.027344 169.855469 20.367188 167.089844 20.777344 164.332031 C 21.1875 161.574219 21.664062 158.824219 22.207031 156.089844 C 22.75 153.355469 23.363281 150.636719 24.039062 147.929688 C 24.71875 145.226562 25.460938 142.539062 26.269531 139.871094 C 27.082031 137.199219 27.953125 134.554688 28.894531 131.929688 C 29.832031 129.300781 30.835938 126.699219 31.90625 124.125 C 32.972656 121.546875 34.101562 119 35.292969 116.476562 C 36.484375 113.957031 37.738281 111.46875 39.054688 109.007812 C 40.367188 106.546875 41.742188 104.121094 43.175781 101.730469 C 44.609375 99.339844 46.101562 96.984375 47.652344 94.664062 C 49.199219 92.347656 50.804688 90.066406 52.46875 87.828125 C 54.128906 85.585938 55.84375 83.390625 57.613281 81.234375 C 59.382812 79.078125 61.203125 76.964844 63.074219 74.898438 C 64.949219 72.832031 66.871094 70.816406 68.84375 68.84375 C 70.816406 66.871094 72.832031 64.949219 74.898438 63.074219 C 76.964844 61.203125 79.078125 59.382812 81.234375 57.613281 C 83.390625 55.84375 85.585938 54.128906 87.828125 52.46875 C 90.066406 50.804688 92.347656 49.199219 94.664062 47.652344 C 96.984375 46.101562 99.339844 44.609375 101.730469 43.175781 C 104.121094 41.742188 106.546875 40.367188 109.007812 39.054688 C 111.46875 37.738281 113.957031 36.484375 116.476562 35.292969 C 119 34.101562 121.546875 32.972656 124.125 31.90625 C 126.699219 30.835938 129.300781 29.832031 131.929688 28.894531 C 134.554688 27.953125 137.199219 27.082031 139.871094 26.269531 C 142.539062 25.460938 145.226562 24.71875 147.929688 24.039062 C 150.636719 23.363281 153.355469 22.75 156.089844 22.207031 C 158.824219 21.664062 161.574219 21.1875 164.332031 20.777344 C 167.089844 20.367188 169.855469 20.027344 172.632812 19.753906 C 175.40625 19.480469 178.1875 19.277344 180.972656 19.136719 C 183.757812 19 186.546875 18.933594 189.332031 18.933594 C 192.121094 18.933594 194.910156 19 197.695312 19.136719 C 200.480469 19.277344 203.261719 19.480469 206.035156 19.753906 C 208.8125 20.027344 211.578125 20.367188 214.335938 20.777344 C 217.09375 21.1875 219.84375 21.664062 222.578125 22.207031 C 225.3125 22.75 228.03125 23.363281 230.738281 24.039062 C 233.441406 24.71875 236.128906 25.460938 238.796875 26.269531 C 241.46875 27.082031 244.113281 27.953125 246.738281 28.894531 C 249.367188 29.832031 251.96875 30.835938 254.542969 31.90625 C 257.121094 32.972656 259.667969 34.101562 262.191406 35.292969 C 264.710938 36.484375 267.199219 37.738281 269.660156 39.054688 C 272.121094 40.367188 274.546875 41.742188 276.9375 43.175781 C 279.328125 44.609375 281.683594 46.101562 284.003906 47.652344 C 286.320312 49.199219 288.601562 50.804688 290.839844 52.46875 C 293.082031 54.128906 295.277344 55.84375 297.433594 57.613281 C 299.589844 59.382812 301.703125 61.203125 303.769531 63.074219 C 305.835938 64.949219 307.851562 66.871094 309.824219 68.84375 C 311.796875 70.816406 313.71875 72.832031 315.59375 74.898438 C 317.464844 76.964844 319.285156 79.078125 321.054688 81.234375 C 322.824219 83.390625 324.539062 85.585938 326.199219 87.828125 C 327.863281 90.066406 329.46875 92.347656 331.015625 94.664062 C 332.566406 96.984375 334.058594 99.339844 335.492188 101.730469 C 336.925781 104.121094 338.300781 106.546875 339.613281 109.007812 C 340.929688 111.46875 342.183594 113.957031 343.375 116.476562 C 344.566406 119 345.695312 121.546875 346.761719 124.125 C 347.832031 126.699219 348.835938 129.300781 349.773438 131.929688 C 350.714844 134.554688 351.585938 137.199219 352.398438 139.871094 C 353.207031 142.539062 353.949219 145.226562 354.628906 147.929688 C 355.304688 150.636719 355.917969 153.355469 356.460938 156.089844 C 357.003906 158.824219 357.480469 161.574219 357.890625 164.332031 C 358.300781 167.089844 358.640625 169.855469 358.914062 172.632812 C 359.1875 175.40625 359.390625 178.1875 359.527344 180.972656 C 359.667969 183.757812 359.734375 186.546875 359.734375 189.332031 Z M 359.734375 189.332031 "/></clipPath></defs><g id="8a6248efe1"><g clip-rule="nonzero" clip-path="url(#741cbbe7f1)"><g clip-rule="nonzero" clip-path="url(#0633c8f71c)"><path style=" stroke:none;fill-rule:nonzero;fill:#4b413a;fill-opacity:1;" d="M 18.933594 18.933594 L 18.933594 359.734375 L 359.734375 359.734375 L 359.734375 18.933594 Z M 18.933594 18.933594 "/></g></g><path style=" stroke:none;fill-rule:nonzero;fill:#ffffff;fill-opacity:1;" d="M 272.46875 227.808594 C 272.742188 224.515625 268.347656 223.273438 266.832031 226.164062 C 251.714844 255.847656 227.394531 276.871094 198.945312 278.652344 C 176 280.027344 155.792969 265.597656 147.960938 242.511719 C 140.402344 220.113281 140.542969 200.875 145.214844 174.625 C 152.222656 135.320312 177.503906 92.996094 217.082031 94.785156 C 233.710938 95.472656 241.683594 105.363281 241.683594 121.71875 C 241.683594 141.371094 230.691406 150.578125 230.691406 158.003906 C 230.691406 160.203125 232.609375 162.539062 236.328125 162.539062 C 251.441406 162.539062 269.304688 144.675781 269.304688 120.488281 C 269.304688 96.164062 249.65625 78.433594 214.753906 78.433594 C 157.171875 78.433594 106.058594 132.441406 106.058594 206.644531 C 106.058594 265.730469 141.097656 300.226562 191.535156 300.226562 C 209.671875 300.226562 234.960938 289.503906 255.300781 265.730469 C 273.984375 244.167969 272.46875 227.808594 272.46875 227.808594 Z M 272.46875 227.808594 "/></g></svg>