<svg xmlns="http://www.w3.org/2000/svg" xmlns:xlink="http://www.w3.org/1999/xlink" width="500" zoomAndPan="magnify" viewBox="0 0 375 374.999991" height="500" preserveAspectRatio="xMidYMid meet" version="1.2"><g id="ea53b327df"><path style=" stroke:none;fill-rule:nonzero;fill:#4b413a;fill-opacity:1;" d="M 211.359375 1.535156 C 108.644531 -11.589844 14.707031 60.914062 1.535156 163.640625 C -11.589844 266.355469 60.914062 360.292969 163.640625 373.464844 C 266.355469 386.589844 360.292969 314.085938 373.40625 211.359375 C 386.589844 108.644531 314.097656 14.707031 211.359375 1.535156 Z M 249.9375 118.535156 C 246.457031 118.535156 243.152344 119.941406 240.714844 122.4375 L 171.140625 191.953125 L 166.324219 187.183594 L 156.304688 177.117188 C 224.847656 108.761719 237.246094 108.082031 249.925781 118.523438 Z M 174.011719 194.449219 L 243.339844 125.0625 C 247.183594 121.03125 253.59375 121.089844 257.449219 125.121094 C 261.234375 129.210938 260.859375 135.621094 256.59375 139.148438 L 183.175781 203.601562 Z M 179.144531 205.324219 L 161.929688 209.039062 C 161.566406 209.097656 161.085938 208.910156 160.898438 208.488281 C 160.710938 208.113281 160.769531 207.691406 161.085938 207.375 L 171.152344 197.308594 Z M 135.316406 198.128906 L 153.691406 179.8125 L 167.425781 193.546875 L 136.476562 200.191406 C 135.925781 200.320312 135.386719 200.085938 135.128906 199.582031 C 134.835938 199.101562 134.953125 198.492188 135.316406 198.128906 Z M 78.375 292.78125 C 77.707031 292.722656 77.203125 292.113281 77.261719 291.503906 C 77.320312 291.210938 77.449219 290.953125 77.636719 290.765625 L 77.695312 290.765625 L 92.460938 276 L 111.574219 295.113281 Z M 116.261719 273.128906 C 114.808594 273.925781 114.070312 275.578125 114.433594 277.160156 L 117.609375 290.660156 C 118.113281 292.617188 115.722656 293.941406 114.316406 292.488281 L 114.257812 292.488281 L 95.097656 273.316406 L 153.878906 214.59375 L 182.320312 208.441406 L 195.925781 222.117188 C 176.332031 239.320312 149.53125 256.476562 116.273438 273.128906 Z M 198.738281 219.609375 L 185.613281 206.484375 L 259.03125 142.03125 C 259.699219 141.421875 260.308594 140.753906 260.859375 140.074219 C 258.609375 161.074219 229.183594 190.734375 198.738281 219.609375 Z M 255.925781 118.652344 L 255.867188 118.652344 C 230.285156 92.953125 266.425781 53.460938 294.257812 76.652344 L 269.121094 101.871094 C 268.382812 102.585938 268.382812 103.828125 269.121094 104.542969 L 288.585938 124.03125 C 277.664062 129.457031 264.539062 127.265625 255.925781 118.652344 Z M 296.144531 118.652344 C 294.867188 119.929688 293.460938 121.089844 291.9375 122.0625 L 273.082031 103.207031 L 297 79.21875 C 307.371094 90.515625 306.949219 107.847656 296.144531 118.652344 Z M 294.609375 94.546875 C 293.824219 95.097656 293.519531 96.058594 293.765625 96.984375 C 294.925781 99.292969 294.609375 102.046875 292.96875 104.003906 C 292.171875 104.988281 292.359375 106.335938 293.332031 107.109375 C 293.707031 107.355469 294.128906 107.542969 294.609375 107.542969 C 295.277344 107.542969 295.910156 107.296875 296.261719 106.804688 C 299.015625 103.511719 299.554688 98.871094 297.667969 95.027344 C 296.929688 94.054688 295.59375 93.808594 294.609375 94.546875 Z M 294.609375 94.546875 "/></g></svg>