<svg width="312" height="358" viewBox="0 0 312 358" fill="none" xmlns="http://www.w3.org/2000/svg">
<path d="M312 99C312 115.569 298.569 129 282 129H246C209.549 129 180 154.967 180 187C180 188.976 180.112 190.929 180.332 192.853C182.094 208.301 180.055 225.718 174.384 240.195C172.187 245.805 171 251.788 171 258C171 263.993 172.105 269.774 174.157 275.212C178.808 287.543 181.608 301.626 175.16 313.12L158.577 342.678C153.268 352.141 143.264 358 132.413 358H30C13.4315 358 0 344.569 0 328V30C0 13.4315 13.4315 0 30 0H282C298.569 0 312 13.4315 312 30V99Z" fill="#EBE2D2"/>
</svg>
